<?xml version="1.0" encoding="utf-8"?>
<svg version="1.1" xmlns:xlink="http://www.w3.org/1999/xlink" width="71px" height="32px" xmlns="http://www.w3.org/2000/svg">
  <g transform="matrix(1 0 0 1 -387 -557 )">
    <path d="M 388 562  A 4 4 0 0 1 392 558 L 453 558  A 4 4 0 0 1 457 562 L 457 584  A 4 4 0 0 1 453 588 L 392 588  A 4 4 0 0 1 388 584 L 388 562  Z " fill-rule="nonzero" fill="#f0f7ff" stroke="none" />
    <path d="M 387.5 562  A 4.5 4.5 0 0 1 392 557.5 L 453 557.5  A 4.5 4.5 0 0 1 457.5 562 L 457.5 584  A 4.5 4.5 0 0 1 453 588.5 L 392 588.5  A 4.5 4.5 0 0 1 387.5 584 L 387.5 562  Z " stroke-width="1" stroke="#7abbff" fill="none" stroke-opacity="0.996078431372549" />
  </g>
</svg>