<?xml version="1.0" encoding="utf-8"?>
<svg version="1.1" xmlns:xlink="http://www.w3.org/1999/xlink" width="71px" height="32px" xmlns="http://www.w3.org/2000/svg">
  <g transform="matrix(1 0 0 1 -387 -557 )">
    <path d="M 387.5 562  A 4.5 4.5 0 0 1 392 557.5 L 453 557.5  A 4.5 4.5 0 0 1 457.5 562 L 457.5 584  A 4.5 4.5 0 0 1 453 588.5 L 392 588.5  A 4.5 4.5 0 0 1 387.5 584 L 387.5 562  Z " fill-rule="nonzero" fill="#ffffff" stroke="none" />
    <path d="M 387.5 562  A 4.5 4.5 0 0 1 392 557.5 L 453 557.5  A 4.5 4.5 0 0 1 457.5 562 L 457.5 584  A 4.5 4.5 0 0 1 453 588.5 L 392 588.5  A 4.5 4.5 0 0 1 387.5 584 L 387.5 562  Z " stroke-width="1" stroke="#e4e4e4" fill="none" />
  </g>
</svg>