<?xml version="1.0" encoding="utf-8"?>
<svg version="1.1" xmlns:xlink="http://www.w3.org/1999/xlink" width="384px" height="260px" xmlns="http://www.w3.org/2000/svg">
  <defs>
    <path d="M 0 0  L 560 0  L 560 376  L 0 376  Z " fill-rule="evenodd" fill="black" id="path1" />
    <clipPath id="clip2">
      <use xlink:href="#path1" />
    </clipPath>
    <path stroke="none" opacity="1" fill-opacity="1" d="M 0,0 l 560,0 l 0,376 l-560 0 z" stroke-opacity="1" transform="matrix(1,0,0,1,0,0)" width="560" height="376" stroke-width="1" fill="#fff"></path>
    <defs id="defs_2"></defs>
    <g stroke="none" fill="none" opacity="1" fill-opacity="1" stroke-opacity="1" transform="matrix(1,0,0,1,0,0)">
      <g stroke="none" fill="none" opacity="1" fill-opacity="1" stroke-opacity="1" transform="matrix(1,0,0,1,0,0)"></g>
      <g stroke="none" fill="none" opacity="1" fill-opacity="1" stroke-opacity="1" transform="matrix(1,0,0,1,0,0)">
        <text paint-order="stroke" style="stroke-linecap:butt; stroke-linejoin:miter;" alignment-baseline="auto" text-anchor="left" opacity="1" fill-opacity="1" stroke-opacity="1" transform="matrix(1,0,0,1,0,0)" x="24" y="42" stroke-width="1" font-size="18" font-family="PingFang SC" font-style="normal" font-weight="normal" font-variant="normal" fill="black" font="normal normal normal 18px PingFang SC">会员等级分布</text>
      </g>
      <g stroke="none" fill="none" opacity="1" fill-opacity="1" stroke-opacity="1" transform="matrix(1,0,0,1,0,0)">
        <path stroke="none" d="M 0,66.5 l 560,0 l 0,309.5 l-560 0 z" opacity="1" fill-opacity="0" stroke-opacity="1" transform="matrix(1,0,0,1,0,0)" width="560" height="309.5" stroke-width="1" fill="#ffffff"></path>
        <g stroke="none" fill="none" opacity="1" fill-opacity="1" stroke-opacity="1" transform="matrix(1,0,0,1,0,0)"></g>
        <g stroke="none" fill="none" opacity="1" fill-opacity="1" stroke-opacity="1" transform="matrix(1,0,0,1,0,0)"></g>
      </g>
      <g stroke="none" fill="none" opacity="1" fill-opacity="1" stroke-opacity="1" transform="matrix(1,0,0,1,0,0)">
        <path stroke="none" d="M 24,78.5 l 440.74400329589844,0 l 0,273.5 l-440.74400329589844 0 z" opacity="1" fill-opacity="0" stroke-opacity="1" transform="matrix(1,0,0,1,0,0)" width="440.74400329589844" height="273.5" stroke-width="1" fill="#ffffff"></path>
        <g stroke="none" fill="none" opacity="1" fill-opacity="1" stroke-opacity="1" transform="matrix(1,0,0,1,0,0)">
          <g stroke="none" fill="none" opacity="1" fill-opacity="1" stroke-opacity="1" transform="matrix(1,0,0,1,0,0)">
            <path opacity="1" fill-opacity="0.85" stroke-opacity="1" transform="matrix(1,0,0,1,0,0)" d="M 244.37200164794922 215.249993436L 282.7132125801108 340.8063149380058A 131.279993436 131.279993436 0 0 0 244.37200164794922 83.97000656399999L 244.37200164794922 215.249993436z" stroke-width="1" fill="#5B8FF9" stroke="white"></path>
            <path opacity="1" fill-opacity="0.85" stroke-opacity="1" transform="matrix(1,0,0,1,0,0)" d="M 244.37200356500986 215.25000627781606L 113.61058484749469 226.9071245551387A 131.279993436 131.279993436 0 0 0 282.7132125801108 340.8063149380058L 244.37200356500986 215.25000627781606z" stroke-width="1" fill="#5AD8A6" stroke="white"></path>
            <path opacity="1" fill-opacity="0.85" stroke-opacity="1" transform="matrix(1,0,0,1,0,0)" d="M 244.37199510987804 215.25000058285625L 171.03285790020306 106.36562705831642A 131.27999343600004 131.27999343600004 0 0 0 113.61058484749469 226.9071245551387L 244.37199510987804 215.25000058285625z" stroke-width="1" fill="#5D7092" stroke="white"></path>
            <path opacity="1" fill-opacity="0.85" stroke-opacity="1" transform="matrix(1,0,0,1,0,0)" d="M 244.37199798099186 215.2499945557811L 244.3720016479492 83.97000656399999A 131.27999343600004 131.27999343600004 0 0 0 171.03285790020306 106.36562705831642L 244.37199798099186 215.2499945557811z" stroke-width="1" fill="#F6BD16" stroke="white"></path>
          </g>
        </g>
      </g>
      <g stroke="none" fill="none" opacity="1" fill-opacity="1" stroke-opacity="1" transform="matrix(1,0,0,1,0,0)">
        <g stroke="none" fill="none" opacity="1" fill-opacity="1" stroke-opacity="1" transform="matrix(1,0,0,1,0,0)">
          <g stroke="none" fill="none" opacity="1" fill-opacity="1" stroke-opacity="1" transform="matrix(1,0,0,1,0,0)">
            <g stroke="none" fill="none" opacity="1" fill-opacity="1" stroke-opacity="1" transform="matrix(1,0,0,1,0,0)">
              <text paint-order="stroke" style="stroke-linecap:butt; stroke-linejoin:miter;" alignment-baseline="auto" text-anchor="middle" opacity="1" fill-opacity="1" stroke-opacity="1" transform="matrix(1,0,0,1,0,0)" x="330.932798842385" y="207.32797271850285" stroke-width="2" font-size="12" font-family="&quot;-apple-system&quot;, BlinkMacSystemFont, &quot;Segoe UI&quot;, Roboto,&quot;Helvetica Neue&quot;, Helvetica, &quot;PingFang SC&quot;, &quot;Hiragino Sans GB&quot;, &quot;Microsoft YaHei&quot;,SimSun, &quot;sans-serif&quot;" font-style="normal" font-weight="normal" font-variant="normal" fill="#595959" stroke="#ffffff" font="normal normal normal 12px &quot;-apple-system&quot;, BlinkMacSystemFont, &quot;Segoe UI&quot;, Roboto,&quot;Helvetica Neue&quot;, Helvetica, &quot;PingFang SC&quot;, &quot;Hiragino Sans GB&quot;, &quot;Microsoft YaHei&quot;,SimSun, &quot;sans-serif&quot;">48</text>
              <text paint-order="stroke" style="stroke-linecap:butt; stroke-linejoin:miter;" alignment-baseline="auto" text-anchor="middle" opacity="1" fill-opacity="1" stroke-opacity="1" transform="matrix(1,0,0,1,0,0)" x="195.47923670481356" y="292.8395855906017" stroke-width="2" font-size="12" font-family="&quot;-apple-system&quot;, BlinkMacSystemFont, &quot;Segoe UI&quot;, Roboto,&quot;Helvetica Neue&quot;, Helvetica, &quot;PingFang SC&quot;, &quot;Hiragino Sans GB&quot;, &quot;Microsoft YaHei&quot;,SimSun, &quot;sans-serif&quot;" font-style="normal" font-weight="normal" font-variant="normal" fill="#595959" stroke="#ffffff" font="normal normal normal 12px &quot;-apple-system&quot;, BlinkMacSystemFont, &quot;Segoe UI&quot;, Roboto,&quot;Helvetica Neue&quot;, Helvetica, &quot;PingFang SC&quot;, &quot;Hiragino Sans GB&quot;, &quot;Microsoft YaHei&quot;,SimSun, &quot;sans-serif&quot;">30</text>
              <text paint-order="stroke" style="stroke-linecap:butt; stroke-linejoin:miter;" alignment-baseline="auto" text-anchor="middle" opacity="1" fill-opacity="1" stroke-opacity="1" transform="matrix(1,0,0,1,0,0)" x="165.35913556934733" y="182.61069349675896" stroke-width="2" font-size="12" font-family="&quot;-apple-system&quot;, BlinkMacSystemFont, &quot;Segoe UI&quot;, Roboto,&quot;Helvetica Neue&quot;, Helvetica, &quot;PingFang SC&quot;, &quot;Hiragino Sans GB&quot;, &quot;Microsoft YaHei&quot;,SimSun, &quot;sans-serif&quot;" font-style="normal" font-weight="normal" font-variant="normal" fill="#595959" stroke="#ffffff" font="normal normal normal 12px &quot;-apple-system&quot;, BlinkMacSystemFont, &quot;Segoe UI&quot;, Roboto,&quot;Helvetica Neue&quot;, Helvetica, &quot;PingFang SC&quot;, &quot;Hiragino Sans GB&quot;, &quot;Microsoft YaHei&quot;,SimSun, &quot;sans-serif&quot;">18</text>
              <text paint-order="stroke" style="stroke-linecap:butt; stroke-linejoin:miter;" alignment-baseline="auto" text-anchor="middle" opacity="1" fill-opacity="1" stroke-opacity="1" transform="matrix(1,0,0,1,0,0)" x="218.8111930818011" y="136.54578585611875" stroke-width="2" font-size="12" font-family="&quot;-apple-system&quot;, BlinkMacSystemFont, &quot;Segoe UI&quot;, Roboto,&quot;Helvetica Neue&quot;, Helvetica, &quot;PingFang SC&quot;, &quot;Hiragino Sans GB&quot;, &quot;Microsoft YaHei&quot;,SimSun, &quot;sans-serif&quot;" font-style="normal" font-weight="normal" font-variant="normal" fill="#595959" stroke="#ffffff" font="normal normal normal 12px &quot;-apple-system&quot;, BlinkMacSystemFont, &quot;Segoe UI&quot;, Roboto,&quot;Helvetica Neue&quot;, Helvetica, &quot;PingFang SC&quot;, &quot;Hiragino Sans GB&quot;, &quot;Microsoft YaHei&quot;,SimSun, &quot;sans-serif&quot;">10</text>
            </g>
            <g stroke="none" fill="none" opacity="1" fill-opacity="1" stroke-opacity="1" transform="matrix(1,0,0,1,0,0)"></g>
          </g>
        </g>
        <g stroke="none" fill="none" opacity="1" fill-opacity="1" stroke-opacity="1" transform="matrix(1,0,0,1,0,0)"></g>
        <g stroke="none" fill="none" opacity="1" fill-opacity="1" stroke-opacity="1" transform="matrix(1,0,0,1,480.74400329589844,66.5)">
          <g stroke="none" fill="none" opacity="1" fill-opacity="1" stroke-opacity="1" transform="matrix(1,0,0,1,0,0)">
            <g stroke="none" fill="none" opacity="1" fill-opacity="1" stroke-opacity="1" transform="matrix(1,0,0,1,0,0)">
              <path stroke="none" d="M 4.5 15m -4.5 0a 4.5 4.5 0 1 0 9 0a 4.5 4.5 0 1 0 -9 0" opacity="1" fill-opacity="0.85" stroke-opacity="1" transform="matrix(1,0,0,1,0,0)" stroke-width="0" fill="#5B8FF9"></path>
              <text paint-order="stroke" style="stroke-linecap:butt; stroke-linejoin:miter;" alignment-baseline="auto" text-anchor="left" opacity="1" fill-opacity="1" stroke-opacity="1" transform="matrix(1,0,0,1,0,0)" x="17" y="20.75" stroke-width="1" font-size="12" font-family="&quot;-apple-system&quot;, BlinkMacSystemFont, &quot;Segoe UI&quot;, Roboto,&quot;Helvetica Neue&quot;, Helvetica, &quot;PingFang SC&quot;, &quot;Hiragino Sans GB&quot;, &quot;Microsoft YaHei&quot;,SimSun, &quot;sans-serif&quot;" font-style="normal" font-weight="normal" font-variant="normal" fill="#8C8C8C" font="normal normal normal 12px &quot;-apple-system&quot;, BlinkMacSystemFont, &quot;Segoe UI&quot;, Roboto,&quot;Helvetica Neue&quot;, Helvetica, &quot;PingFang SC&quot;, &quot;Hiragino Sans GB&quot;, &quot;Microsoft YaHei&quot;,SimSun, &quot;sans-serif&quot;">普卡</text>
              <path stroke="none" d="M 0,8.5 l 42.003997802734375,0 l 0,13 l-42.003997802734375 0 z" opacity="1" fill-opacity="0" stroke-opacity="1" transform="matrix(1,0,0,1,0,0)" width="42.003997802734375" height="13" stroke-width="1" fill="#fff"></path>
            </g>
            <g stroke="none" fill="none" opacity="1" fill-opacity="1" stroke-opacity="1" transform="matrix(1,0,0,1,0,0)">
              <path stroke="none" d="M 4.5 37.25m -4.5 0a 4.5 4.5 0 1 0 9 0a 4.5 4.5 0 1 0 -9 0" opacity="1" fill-opacity="0.85" stroke-opacity="1" transform="matrix(1,0,0,1,0,0)" stroke-width="0" fill="#5AD8A6"></path>
              <text paint-order="stroke" style="stroke-linecap:butt; stroke-linejoin:miter;" alignment-baseline="auto" text-anchor="left" opacity="1" fill-opacity="1" stroke-opacity="1" transform="matrix(1,0,0,1,0,0)" x="17" y="43" stroke-width="1" font-size="12" font-family="&quot;-apple-system&quot;, BlinkMacSystemFont, &quot;Segoe UI&quot;, Roboto,&quot;Helvetica Neue&quot;, Helvetica, &quot;PingFang SC&quot;, &quot;Hiragino Sans GB&quot;, &quot;Microsoft YaHei&quot;,SimSun, &quot;sans-serif&quot;" font-style="normal" font-weight="normal" font-variant="normal" fill="#8C8C8C" font="normal normal normal 12px &quot;-apple-system&quot;, BlinkMacSystemFont, &quot;Segoe UI&quot;, Roboto,&quot;Helvetica Neue&quot;, Helvetica, &quot;PingFang SC&quot;, &quot;Hiragino Sans GB&quot;, &quot;Microsoft YaHei&quot;,SimSun, &quot;sans-serif&quot;">银卡</text>
              <path stroke="none" d="M 0,30.75 l 42.003997802734375,0 l 0,13 l-42.003997802734375 0 z" opacity="1" fill-opacity="0" stroke-opacity="1" transform="matrix(1,0,0,1,0,0)" width="42.003997802734375" height="13" stroke-width="1" fill="#fff"></path>
            </g>
            <g stroke="none" fill="none" opacity="1" fill-opacity="1" stroke-opacity="1" transform="matrix(1,0,0,1,0,0)">
              <path stroke="none" d="M 4.5 59.5m -4.5 0a 4.5 4.5 0 1 0 9 0a 4.5 4.5 0 1 0 -9 0" opacity="1" fill-opacity="0.85" stroke-opacity="1" transform="matrix(1,0,0,1,0,0)" stroke-width="0" fill="#5D7092"></path>
              <text paint-order="stroke" style="stroke-linecap:butt; stroke-linejoin:miter;" alignment-baseline="auto" text-anchor="left" opacity="1" fill-opacity="1" stroke-opacity="1" transform="matrix(1,0,0,1,0,0)" x="17" y="65.25" stroke-width="1" font-size="12" font-family="&quot;-apple-system&quot;, BlinkMacSystemFont, &quot;Segoe UI&quot;, Roboto,&quot;Helvetica Neue&quot;, Helvetica, &quot;PingFang SC&quot;, &quot;Hiragino Sans GB&quot;, &quot;Microsoft YaHei&quot;,SimSun, &quot;sans-serif&quot;" font-style="normal" font-weight="normal" font-variant="normal" fill="#8C8C8C" font="normal normal normal 12px &quot;-apple-system&quot;, BlinkMacSystemFont, &quot;Segoe UI&quot;, Roboto,&quot;Helvetica Neue&quot;, Helvetica, &quot;PingFang SC&quot;, &quot;Hiragino Sans GB&quot;, &quot;Microsoft YaHei&quot;,SimSun, &quot;sans-serif&quot;">金卡</text>
              <path stroke="none" d="M 0,53 l 42.003997802734375,0 l 0,13 l-42.003997802734375 0 z" opacity="1" fill-opacity="0" stroke-opacity="1" transform="matrix(1,0,0,1,0,0)" width="42.003997802734375" height="13" stroke-width="1" fill="#fff"></path>
            </g>
            <g stroke="none" fill="none" opacity="1" fill-opacity="1" stroke-opacity="1" transform="matrix(1,0,0,1,0,0)">
              <path stroke="none" d="M 4.5 81.75m -4.5 0a 4.5 4.5 0 1 0 9 0a 4.5 4.5 0 1 0 -9 0" opacity="1" fill-opacity="0.85" stroke-opacity="1" transform="matrix(1,0,0,1,0,0)" stroke-width="0" fill="#F6BD16"></path>
              <text paint-order="stroke" style="stroke-linecap:butt; stroke-linejoin:miter;" alignment-baseline="auto" text-anchor="left" opacity="1" fill-opacity="1" stroke-opacity="1" transform="matrix(1,0,0,1,0,0)" x="17" y="87.5" stroke-width="1" font-size="12" font-family="&quot;-apple-system&quot;, BlinkMacSystemFont, &quot;Segoe UI&quot;, Roboto,&quot;Helvetica Neue&quot;, Helvetica, &quot;PingFang SC&quot;, &quot;Hiragino Sans GB&quot;, &quot;Microsoft YaHei&quot;,SimSun, &quot;sans-serif&quot;" font-style="normal" font-weight="normal" font-variant="normal" fill="#8C8C8C" font="normal normal normal 12px &quot;-apple-system&quot;, BlinkMacSystemFont, &quot;Segoe UI&quot;, Roboto,&quot;Helvetica Neue&quot;, Helvetica, &quot;PingFang SC&quot;, &quot;Hiragino Sans GB&quot;, &quot;Microsoft YaHei&quot;,SimSun, &quot;sans-serif&quot;">钻石卡</text>
              <path stroke="none" d="M 0,75.25 l 54.25599670410156,0 l 0,13 l-54.25599670410156 0 z" opacity="1" fill-opacity="0" stroke-opacity="1" transform="matrix(1,0,0,1,0,0)" width="54.25599670410156" height="13" stroke-width="1" fill="#fff"></path>
            </g>
          </g>
        </g>
      </g>
    </g>
    <filter x="-50.00%" y="-50.00%" width="200.00%" height="200.00%" filterUnits="objectBoundingBox" id="filter3">
      <feColorMatrix type="matrix" values="1 0 0 0 0  0 1 0 0 0  0 0 1 0 0  0 0 0 1 0  " in="SourceGraphic" />
    </filter>
    <filter x="827px" y="703px" width="384px" height="260px" filterUnits="userSpaceOnUse" id="filter4">
      <feOffset dx="1" dy="1" in="SourceAlpha" result="shadowOffsetInner" />
      <feGaussianBlur stdDeviation="1.5" in="shadowOffsetInner" result="shadowGaussian" />
      <feComposite in2="shadowGaussian" operator="atop" in="SourceAlpha" result="shadowComposite" />
      <feColorMatrix type="matrix" values="0 0 0 0 0.949019607843137  0 0 0 0 0.949019607843137  0 0 0 0 0.949019607843137  0 0 0 0.349019607843137 0  " in="shadowComposite" />
    </filter>
    <g id="widget5">
      <g transform="matrix(0.675 0 0 0.675 829 705.1 )" clip-path="url(#clip2)" filter="url(#filter3)">
        <path stroke="none" opacity="1" fill-opacity="1" d="M 0,0 l 560,0 l 0,376 l-560 0 z" stroke-opacity="1" transform="matrix(1,0,0,1,0,0)" width="560" height="376" stroke-width="1" fill="#fff"></path>
        <g stroke="none" fill="none" opacity="1" fill-opacity="1" stroke-opacity="1" transform="matrix(1,0,0,1,0,0)">
          <g stroke="none" fill="none" opacity="1" fill-opacity="1" stroke-opacity="1" transform="matrix(1,0,0,1,0,0)"></g>
          <g stroke="none" fill="none" opacity="1" fill-opacity="1" stroke-opacity="1" transform="matrix(1,0,0,1,0,0)">
            <text paint-order="stroke" style="stroke-linecap:butt; stroke-linejoin:miter;" alignment-baseline="auto" text-anchor="left" opacity="1" fill-opacity="1" stroke-opacity="1" transform="matrix(1,0,0,1,0,0)" x="24" y="42" stroke-width="1" font-size="18" font-family="PingFang SC" font-style="normal" font-weight="normal" font-variant="normal" fill="black" font="normal normal normal 18px PingFang SC">会员等级分布</text>
          </g>
          <g stroke="none" fill="none" opacity="1" fill-opacity="1" stroke-opacity="1" transform="matrix(1,0,0,1,0,0)">
            <path stroke="none" d="M 0,66.5 l 560,0 l 0,309.5 l-560 0 z" opacity="1" fill-opacity="0" stroke-opacity="1" transform="matrix(1,0,0,1,0,0)" width="560" height="309.5" stroke-width="1" fill="#ffffff"></path>
            <g stroke="none" fill="none" opacity="1" fill-opacity="1" stroke-opacity="1" transform="matrix(1,0,0,1,0,0)"></g>
            <g stroke="none" fill="none" opacity="1" fill-opacity="1" stroke-opacity="1" transform="matrix(1,0,0,1,0,0)"></g>
          </g>
          <g stroke="none" fill="none" opacity="1" fill-opacity="1" stroke-opacity="1" transform="matrix(1,0,0,1,0,0)">
            <path stroke="none" d="M 24,78.5 l 440.74400329589844,0 l 0,273.5 l-440.74400329589844 0 z" opacity="1" fill-opacity="0" stroke-opacity="1" transform="matrix(1,0,0,1,0,0)" width="440.74400329589844" height="273.5" stroke-width="1" fill="#ffffff"></path>
            <g stroke="none" fill="none" opacity="1" fill-opacity="1" stroke-opacity="1" transform="matrix(1,0,0,1,0,0)">
              <g stroke="none" fill="none" opacity="1" fill-opacity="1" stroke-opacity="1" transform="matrix(1,0,0,1,0,0)">
                <path opacity="1" fill-opacity="0.85" stroke-opacity="1" transform="matrix(1,0,0,1,0,0)" d="M 244.37200164794922 215.249993436L 282.7132125801108 340.8063149380058A 131.279993436 131.279993436 0 0 0 244.37200164794922 83.97000656399999L 244.37200164794922 215.249993436z" stroke-width="1" fill="#5B8FF9" stroke="white"></path>
                <path opacity="1" fill-opacity="0.85" stroke-opacity="1" transform="matrix(1,0,0,1,0,0)" d="M 244.37200356500986 215.25000627781606L 113.61058484749469 226.9071245551387A 131.279993436 131.279993436 0 0 0 282.7132125801108 340.8063149380058L 244.37200356500986 215.25000627781606z" stroke-width="1" fill="#5AD8A6" stroke="white"></path>
                <path opacity="1" fill-opacity="0.85" stroke-opacity="1" transform="matrix(1,0,0,1,0,0)" d="M 244.37199510987804 215.25000058285625L 171.03285790020306 106.36562705831642A 131.27999343600004 131.27999343600004 0 0 0 113.61058484749469 226.9071245551387L 244.37199510987804 215.25000058285625z" stroke-width="1" fill="#5D7092" stroke="white"></path>
                <path opacity="1" fill-opacity="0.85" stroke-opacity="1" transform="matrix(1,0,0,1,0,0)" d="M 244.37199798099186 215.2499945557811L 244.3720016479492 83.97000656399999A 131.27999343600004 131.27999343600004 0 0 0 171.03285790020306 106.36562705831642L 244.37199798099186 215.2499945557811z" stroke-width="1" fill="#F6BD16" stroke="white"></path>
              </g>
            </g>
          </g>
          <g stroke="none" fill="none" opacity="1" fill-opacity="1" stroke-opacity="1" transform="matrix(1,0,0,1,0,0)">
            <g stroke="none" fill="none" opacity="1" fill-opacity="1" stroke-opacity="1" transform="matrix(1,0,0,1,0,0)">
              <g stroke="none" fill="none" opacity="1" fill-opacity="1" stroke-opacity="1" transform="matrix(1,0,0,1,0,0)">
                <g stroke="none" fill="none" opacity="1" fill-opacity="1" stroke-opacity="1" transform="matrix(1,0,0,1,0,0)">
                  <text paint-order="stroke" style="stroke-linecap:butt; stroke-linejoin:miter;" alignment-baseline="auto" text-anchor="middle" opacity="1" fill-opacity="1" stroke-opacity="1" transform="matrix(1,0,0,1,0,0)" x="330.932798842385" y="207.32797271850285" stroke-width="2" font-size="12" font-family="&quot;-apple-system&quot;, BlinkMacSystemFont, &quot;Segoe UI&quot;, Roboto,&quot;Helvetica Neue&quot;, Helvetica, &quot;PingFang SC&quot;, &quot;Hiragino Sans GB&quot;, &quot;Microsoft YaHei&quot;,SimSun, &quot;sans-serif&quot;" font-style="normal" font-weight="normal" font-variant="normal" fill="#595959" stroke="#ffffff" font="normal normal normal 12px &quot;-apple-system&quot;, BlinkMacSystemFont, &quot;Segoe UI&quot;, Roboto,&quot;Helvetica Neue&quot;, Helvetica, &quot;PingFang SC&quot;, &quot;Hiragino Sans GB&quot;, &quot;Microsoft YaHei&quot;,SimSun, &quot;sans-serif&quot;">48</text>
                  <text paint-order="stroke" style="stroke-linecap:butt; stroke-linejoin:miter;" alignment-baseline="auto" text-anchor="middle" opacity="1" fill-opacity="1" stroke-opacity="1" transform="matrix(1,0,0,1,0,0)" x="195.47923670481356" y="292.8395855906017" stroke-width="2" font-size="12" font-family="&quot;-apple-system&quot;, BlinkMacSystemFont, &quot;Segoe UI&quot;, Roboto,&quot;Helvetica Neue&quot;, Helvetica, &quot;PingFang SC&quot;, &quot;Hiragino Sans GB&quot;, &quot;Microsoft YaHei&quot;,SimSun, &quot;sans-serif&quot;" font-style="normal" font-weight="normal" font-variant="normal" fill="#595959" stroke="#ffffff" font="normal normal normal 12px &quot;-apple-system&quot;, BlinkMacSystemFont, &quot;Segoe UI&quot;, Roboto,&quot;Helvetica Neue&quot;, Helvetica, &quot;PingFang SC&quot;, &quot;Hiragino Sans GB&quot;, &quot;Microsoft YaHei&quot;,SimSun, &quot;sans-serif&quot;">30</text>
                  <text paint-order="stroke" style="stroke-linecap:butt; stroke-linejoin:miter;" alignment-baseline="auto" text-anchor="middle" opacity="1" fill-opacity="1" stroke-opacity="1" transform="matrix(1,0,0,1,0,0)" x="165.35913556934733" y="182.61069349675896" stroke-width="2" font-size="12" font-family="&quot;-apple-system&quot;, BlinkMacSystemFont, &quot;Segoe UI&quot;, Roboto,&quot;Helvetica Neue&quot;, Helvetica, &quot;PingFang SC&quot;, &quot;Hiragino Sans GB&quot;, &quot;Microsoft YaHei&quot;,SimSun, &quot;sans-serif&quot;" font-style="normal" font-weight="normal" font-variant="normal" fill="#595959" stroke="#ffffff" font="normal normal normal 12px &quot;-apple-system&quot;, BlinkMacSystemFont, &quot;Segoe UI&quot;, Roboto,&quot;Helvetica Neue&quot;, Helvetica, &quot;PingFang SC&quot;, &quot;Hiragino Sans GB&quot;, &quot;Microsoft YaHei&quot;,SimSun, &quot;sans-serif&quot;">18</text>
                  <text paint-order="stroke" style="stroke-linecap:butt; stroke-linejoin:miter;" alignment-baseline="auto" text-anchor="middle" opacity="1" fill-opacity="1" stroke-opacity="1" transform="matrix(1,0,0,1,0,0)" x="218.8111930818011" y="136.54578585611875" stroke-width="2" font-size="12" font-family="&quot;-apple-system&quot;, BlinkMacSystemFont, &quot;Segoe UI&quot;, Roboto,&quot;Helvetica Neue&quot;, Helvetica, &quot;PingFang SC&quot;, &quot;Hiragino Sans GB&quot;, &quot;Microsoft YaHei&quot;,SimSun, &quot;sans-serif&quot;" font-style="normal" font-weight="normal" font-variant="normal" fill="#595959" stroke="#ffffff" font="normal normal normal 12px &quot;-apple-system&quot;, BlinkMacSystemFont, &quot;Segoe UI&quot;, Roboto,&quot;Helvetica Neue&quot;, Helvetica, &quot;PingFang SC&quot;, &quot;Hiragino Sans GB&quot;, &quot;Microsoft YaHei&quot;,SimSun, &quot;sans-serif&quot;">10</text>
                </g>
                <g stroke="none" fill="none" opacity="1" fill-opacity="1" stroke-opacity="1" transform="matrix(1,0,0,1,0,0)"></g>
              </g>
            </g>
            <g stroke="none" fill="none" opacity="1" fill-opacity="1" stroke-opacity="1" transform="matrix(1,0,0,1,0,0)"></g>
            <g stroke="none" fill="none" opacity="1" fill-opacity="1" stroke-opacity="1" transform="matrix(1,0,0,1,480.74400329589844,66.5)">
              <g stroke="none" fill="none" opacity="1" fill-opacity="1" stroke-opacity="1" transform="matrix(1,0,0,1,0,0)">
                <g stroke="none" fill="none" opacity="1" fill-opacity="1" stroke-opacity="1" transform="matrix(1,0,0,1,0,0)">
                  <path stroke="none" d="M 4.5 15m -4.5 0a 4.5 4.5 0 1 0 9 0a 4.5 4.5 0 1 0 -9 0" opacity="1" fill-opacity="0.85" stroke-opacity="1" transform="matrix(1,0,0,1,0,0)" stroke-width="0" fill="#5B8FF9"></path>
                  <text paint-order="stroke" style="stroke-linecap:butt; stroke-linejoin:miter;" alignment-baseline="auto" text-anchor="left" opacity="1" fill-opacity="1" stroke-opacity="1" transform="matrix(1,0,0,1,0,0)" x="17" y="20.75" stroke-width="1" font-size="12" font-family="&quot;-apple-system&quot;, BlinkMacSystemFont, &quot;Segoe UI&quot;, Roboto,&quot;Helvetica Neue&quot;, Helvetica, &quot;PingFang SC&quot;, &quot;Hiragino Sans GB&quot;, &quot;Microsoft YaHei&quot;,SimSun, &quot;sans-serif&quot;" font-style="normal" font-weight="normal" font-variant="normal" fill="#8C8C8C" font="normal normal normal 12px &quot;-apple-system&quot;, BlinkMacSystemFont, &quot;Segoe UI&quot;, Roboto,&quot;Helvetica Neue&quot;, Helvetica, &quot;PingFang SC&quot;, &quot;Hiragino Sans GB&quot;, &quot;Microsoft YaHei&quot;,SimSun, &quot;sans-serif&quot;">普卡</text>
                  <path stroke="none" d="M 0,8.5 l 42.003997802734375,0 l 0,13 l-42.003997802734375 0 z" opacity="1" fill-opacity="0" stroke-opacity="1" transform="matrix(1,0,0,1,0,0)" width="42.003997802734375" height="13" stroke-width="1" fill="#fff"></path>
                </g>
                <g stroke="none" fill="none" opacity="1" fill-opacity="1" stroke-opacity="1" transform="matrix(1,0,0,1,0,0)">
                  <path stroke="none" d="M 4.5 37.25m -4.5 0a 4.5 4.5 0 1 0 9 0a 4.5 4.5 0 1 0 -9 0" opacity="1" fill-opacity="0.85" stroke-opacity="1" transform="matrix(1,0,0,1,0,0)" stroke-width="0" fill="#5AD8A6"></path>
                  <text paint-order="stroke" style="stroke-linecap:butt; stroke-linejoin:miter;" alignment-baseline="auto" text-anchor="left" opacity="1" fill-opacity="1" stroke-opacity="1" transform="matrix(1,0,0,1,0,0)" x="17" y="43" stroke-width="1" font-size="12" font-family="&quot;-apple-system&quot;, BlinkMacSystemFont, &quot;Segoe UI&quot;, Roboto,&quot;Helvetica Neue&quot;, Helvetica, &quot;PingFang SC&quot;, &quot;Hiragino Sans GB&quot;, &quot;Microsoft YaHei&quot;,SimSun, &quot;sans-serif&quot;" font-style="normal" font-weight="normal" font-variant="normal" fill="#8C8C8C" font="normal normal normal 12px &quot;-apple-system&quot;, BlinkMacSystemFont, &quot;Segoe UI&quot;, Roboto,&quot;Helvetica Neue&quot;, Helvetica, &quot;PingFang SC&quot;, &quot;Hiragino Sans GB&quot;, &quot;Microsoft YaHei&quot;,SimSun, &quot;sans-serif&quot;">银卡</text>
                  <path stroke="none" d="M 0,30.75 l 42.003997802734375,0 l 0,13 l-42.003997802734375 0 z" opacity="1" fill-opacity="0" stroke-opacity="1" transform="matrix(1,0,0,1,0,0)" width="42.003997802734375" height="13" stroke-width="1" fill="#fff"></path>
                </g>
                <g stroke="none" fill="none" opacity="1" fill-opacity="1" stroke-opacity="1" transform="matrix(1,0,0,1,0,0)">
                  <path stroke="none" d="M 4.5 59.5m -4.5 0a 4.5 4.5 0 1 0 9 0a 4.5 4.5 0 1 0 -9 0" opacity="1" fill-opacity="0.85" stroke-opacity="1" transform="matrix(1,0,0,1,0,0)" stroke-width="0" fill="#5D7092"></path>
                  <text paint-order="stroke" style="stroke-linecap:butt; stroke-linejoin:miter;" alignment-baseline="auto" text-anchor="left" opacity="1" fill-opacity="1" stroke-opacity="1" transform="matrix(1,0,0,1,0,0)" x="17" y="65.25" stroke-width="1" font-size="12" font-family="&quot;-apple-system&quot;, BlinkMacSystemFont, &quot;Segoe UI&quot;, Roboto,&quot;Helvetica Neue&quot;, Helvetica, &quot;PingFang SC&quot;, &quot;Hiragino Sans GB&quot;, &quot;Microsoft YaHei&quot;,SimSun, &quot;sans-serif&quot;" font-style="normal" font-weight="normal" font-variant="normal" fill="#8C8C8C" font="normal normal normal 12px &quot;-apple-system&quot;, BlinkMacSystemFont, &quot;Segoe UI&quot;, Roboto,&quot;Helvetica Neue&quot;, Helvetica, &quot;PingFang SC&quot;, &quot;Hiragino Sans GB&quot;, &quot;Microsoft YaHei&quot;,SimSun, &quot;sans-serif&quot;">金卡</text>
                  <path stroke="none" d="M 0,53 l 42.003997802734375,0 l 0,13 l-42.003997802734375 0 z" opacity="1" fill-opacity="0" stroke-opacity="1" transform="matrix(1,0,0,1,0,0)" width="42.003997802734375" height="13" stroke-width="1" fill="#fff"></path>
                </g>
                <g stroke="none" fill="none" opacity="1" fill-opacity="1" stroke-opacity="1" transform="matrix(1,0,0,1,0,0)">
                  <path stroke="none" d="M 4.5 81.75m -4.5 0a 4.5 4.5 0 1 0 9 0a 4.5 4.5 0 1 0 -9 0" opacity="1" fill-opacity="0.85" stroke-opacity="1" transform="matrix(1,0,0,1,0,0)" stroke-width="0" fill="#F6BD16"></path>
                  <text paint-order="stroke" style="stroke-linecap:butt; stroke-linejoin:miter;" alignment-baseline="auto" text-anchor="left" opacity="1" fill-opacity="1" stroke-opacity="1" transform="matrix(1,0,0,1,0,0)" x="17" y="87.5" stroke-width="1" font-size="12" font-family="&quot;-apple-system&quot;, BlinkMacSystemFont, &quot;Segoe UI&quot;, Roboto,&quot;Helvetica Neue&quot;, Helvetica, &quot;PingFang SC&quot;, &quot;Hiragino Sans GB&quot;, &quot;Microsoft YaHei&quot;,SimSun, &quot;sans-serif&quot;" font-style="normal" font-weight="normal" font-variant="normal" fill="#8C8C8C" font="normal normal normal 12px &quot;-apple-system&quot;, BlinkMacSystemFont, &quot;Segoe UI&quot;, Roboto,&quot;Helvetica Neue&quot;, Helvetica, &quot;PingFang SC&quot;, &quot;Hiragino Sans GB&quot;, &quot;Microsoft YaHei&quot;,SimSun, &quot;sans-serif&quot;">钻石卡</text>
                  <path stroke="none" d="M 0,75.25 l 54.25599670410156,0 l 0,13 l-54.25599670410156 0 z" opacity="1" fill-opacity="0" stroke-opacity="1" transform="matrix(1,0,0,1,0,0)" width="54.25599670410156" height="13" stroke-width="1" fill="#fff"></path>
                </g>
              </g>
            </g>
          </g>
        </g>
      </g>
      <path d="M 829.5 958.5  L 829.5 705.5  L 1206.5 705.5  L 1206.5 958.5  L 829.5 958.5  Z " stroke-width="1" stroke="#f2f2f2" fill="none" />
    </g>
  </defs>
  <g transform="matrix(1 0 0 1 -827 -703 )">
    <use xlink:href="#widget5" filter="url(#filter4)" />
    <use xlink:href="#widget5" />
  </g>
</svg>