<?xml version="1.0" encoding="utf-8"?>
<svg version="1.1" xmlns:xlink="http://www.w3.org/1999/xlink" width="100px" height="40px" xmlns="http://www.w3.org/2000/svg">
  <g transform="matrix(1 0 0 1 -1168 -325 )">
    <path d="M 1169 330  A 4 4 0 0 1 1173 326 L 1263 326  A 4 4 0 0 1 1267 330 L 1267 360  A 4 4 0 0 1 1263 364 L 1173 364  A 4 4 0 0 1 1169 360 L 1169 330  Z " fill-rule="nonzero" fill="#f0f7ff" stroke="none" />
    <path d="M 1168.5 330  A 4.5 4.5 0 0 1 1173 325.5 L 1263 325.5  A 4.5 4.5 0 0 1 1267.5 330 L 1267.5 360  A 4.5 4.5 0 0 1 1263 364.5 L 1173 364.5  A 4.5 4.5 0 0 1 1168.5 360 L 1168.5 330  Z " stroke-width="1" stroke="#7abbff" fill="none" stroke-opacity="0.996078431372549" />
  </g>
</svg>