<?xml version="1.0" encoding="utf-8"?>
<svg version="1.1" xmlns:xlink="http://www.w3.org/1999/xlink" width="100px" height="40px" xmlns="http://www.w3.org/2000/svg">
  <g transform="matrix(1 0 0 1 -1168 -325 )">
    <path d="M 1168.5 330  A 4.5 4.5 0 0 1 1173 325.5 L 1263 325.5  A 4.5 4.5 0 0 1 1267.5 330 L 1267.5 360  A 4.5 4.5 0 0 1 1263 364.5 L 1173 364.5  A 4.5 4.5 0 0 1 1168.5 360 L 1168.5 330  Z " fill-rule="nonzero" fill="#f0f7ff" stroke="none" />
    <path d="M 1168.5 330  A 4.5 4.5 0 0 1 1173 325.5 L 1263 325.5  A 4.5 4.5 0 0 1 1267.5 330 L 1267.5 360  A 4.5 4.5 0 0 1 1263 364.5 L 1173 364.5  A 4.5 4.5 0 0 1 1168.5 360 L 1168.5 330  Z " stroke-width="1" stroke="#409eff" fill="none" />
  </g>
</svg>